<?xml version="1.0" encoding="UTF-8"?>
<svg id="_圖層_1" xmlns="http://www.w3.org/2000/svg" version="1.1" xmlns:xlink="http://www.w3.org/1999/xlink" viewBox="0 0 141.7 141.7">
  <!-- Generator: Adobe Illustrator 29.3.1, SVG Export Plug-In . SVG Version: 2.1.0 Build 151)  -->
  <defs>
    <style>
      .st0 {
        fill: #fff;
      }

      .st1 {
        fill: none;
      }

      .st2 {
        fill: #bcbec0;
      }

      .st3 {
        fill: #515151;
      }
    </style>
  </defs>
  <g>
    <polygon class="st0" points="130.3 60.7 130.5 107 11.4 107.4 11.2 61.1 104.5 60.8 104.9 60 10.5 60.3 10.6 108.2 131.2 107.8 131.1 59.9 113.9 59.9 113.4 60.8 130.3 60.7"/>
    <path class="st0" d="M108.8,95.2c1,1.1,2.5,1.9,4.4,2.3v3.1c0,.2.1.3.3.3h2.6c.2,0,.3-.2.3-.3v-3.2c1.6-.5,2.9-1.5,3.9-3,1-1.5,1.6-3.3,1.6-5.2,0-2-.6-3.8-1.8-5.2-.4-.5-1-1.1-1.8-1.6h0c-.8-.5-1.8-1.1-3-1.7-1.3-.7-2.3-1.3-2.7-1.8-.4-.5-.6-1-.6-1.7,0-.8.2-1.4.8-1.9.5-.5,1.2-.8,2-.8,1.3,0,2.3.8,3.2,2.5,0,0,0,.1.2.2,0,0,.2,0,.2,0l2.9-1.8c.1,0,.2-.3.1-.4-.7-1.4-1.4-2.4-2.2-3.1-.7-.6-1.7-1.1-2.8-1.3v-3c0-.2-.1-.3-.3-.3h-2.6c-.2,0-.3.2-.3.3v3c-.7.2-1.4.6-2,.9-.7.4-1.2,1-1.7,1.5-.4.6-.8,1.3-1,2-.2.7-.4,1.5-.4,2.4,0,1.8.5,3.3,1.5,4.6.6.9,1.9,1.8,3.9,2.8.9.5,1.7.9,2.3,1.3.6.4,1,.7,1.3,1,.6.6.8,1.4.8,2.4,0,1.2-.3,2.1-1,2.8-.7.7-1.5,1.1-2.5,1.1-1,0-1.9-.3-2.5-.9-.6-.7-1.1-1.9-1.6-3.5,0-.2-.2-.3-.3-.2l-3.3.8c0,0-.1,0-.2.1,0,0,0,.2,0,.2.5,2.5,1.3,4.3,2.4,5.5Z"/>
    <path class="st0" d="M17.9,99l81.7-.3v-10.8s-5.8-2.7-5.8-2.7v-.2c0,0-76,.3-76,.3v13.7ZM94.8,85.7l4,1.9-.9,1.9-4-1.9.9-1.9ZM94.5,87.9l1.3.6,1.3.6-.3,4.3-4.8,3.1-.7-5.7,3.1-3Z"/>
    <rect class="st0" x="17.8" y="69.1" width="81.7" height="1.8" transform="translate(-.2 .2) rotate(-.2)"/>
    <polygon class="st0" points="17.8 79.3 96.5 79 97.3 77.3 17.8 77.5 17.8 79.3"/>
    <path class="st3" d="M114.8,58.2l.8-1.8,9.7-21.4c.2-.4,0-.9-.4-1.1l-1.6-.7-9.8,20.8-2.2-1.1,9.8-20.8,2.1,1-1-.5-2.7-1.3c-.4-.2-.9,0-1.1.4l-11.1,22.9,7.6,3.6Z"/>
    <polygon class="st3" points="104.5 60.8 97.3 77.3 96.5 79 93.9 85.1 93.8 85.2 99.6 87.9 99.7 88 113.4 60.8 113.9 59.9 114 59.7 106.5 56.2 106.4 56.4 104.9 60 104.5 60.8"/>
    <path class="st3" d="M123.3,33.1h0l1.6.7h0s.3-.7.3-.7c.3-.6,0-1.3-.6-1.6l-3.3-1.6c-.6-.3-1.3,0-1.6.6l-.3.7,2.8,1.3,1,.5h0Z"/>
    <rect class="st3" x="95.2" y="85.4" width="2.2" height="4.5" transform="translate(-23.9 137.5) rotate(-64.8)"/>
    <path class="st3" d="M96.9,93.5l.3-4.3-1.3-.6-1.3-.6-3.1,3,.7,5.7,4.8-3.1ZM93.6,90.9c.2-.5.8-.7,1.4-.5.5.2.7.8.5,1.3s-.8.7-1.4.5c-.5-.2-.7-.8-.5-1.3Z"/>
    <polygon class="st0" points="123.2 33.1 121 32.1 111.3 52.9 113.5 53.9 123.3 33.1 123.3 33.1 123.2 33.1"/>
    <polygon class="st2" points="114 59.7 114 59.8 114.8 58.2 107.2 54.6 106.5 56.2 106.5 56.2 114 59.7"/>
    <path class="st0" d="M94.1,92.3c.5.2,1.1,0,1.4-.5s0-1.1-.5-1.3c-.5-.2-1.1,0-1.4.5-.2.5,0,1.1.5,1.3Z"/>
  </g>
  <g>
    <polygon class="st1" points="114.4 60.8 114.3 60.8 114.2 61.2 100.4 88.4 100.1 89.1 99.4 88.7 99.2 88.7 93.5 86 92.8 85.6 93.1 84.9 93.2 84.7 95.8 78.7 96.6 76.9 103.7 60.5 104 60 10.5 60.3 10.6 108.2 131.2 107.8 131.1 59.9 114.8 59.9 114.8 60.1 114.4 60.8"/>
    <polygon class="st3" points="134.4 56.3 116.5 56.4 116.3 56.7 115.8 57.8 115.8 57.8 115.5 58.5 115.2 59.3 115.2 59.2 114.8 59.9 131.1 59.9 131.2 107.8 10.6 108.2 10.5 60.3 104 60 104.1 59.6 105.4 56.6 105.4 56.6 105.5 56.4 7.1 56.7 7.3 111.8 134.6 111.4 134.4 56.3"/>
    <g>
      <polygon class="st1" points="99.2 88.7 93.5 86 92.8 85.6 93 85.1 17.9 85.3 17.9 99 99.6 98.7 99.6 88.8 99.4 88.7 99.2 88.7"/>
      <polygon class="st1" points="96.4 77.3 17.8 77.5 17.8 79.3 95.7 79 95.8 78.7 96.4 77.3"/>
      <polygon class="st1" points="99.5 68.9 17.8 69.2 17.8 71 99.3 70.7 99.5 70.2 99.5 68.9"/>
      <path class="st1" d="M118.2,82.3h0c-.8-.5-1.8-1.1-3-1.7-1.3-.7-2.3-1.3-2.7-1.8-.4-.5-.6-1-.6-1.7,0-.8.2-1.4.8-1.9.5-.5,1.2-.8,2-.8,1.3,0,2.3.8,3.2,2.5,0,0,0,.1.2.2,0,0,.2,0,.2,0l2.9-1.8c.1,0,.2-.3.1-.4-.7-1.4-1.4-2.4-2.2-3.1-.7-.6-1.7-1.1-2.8-1.3v-3c0-.2-.1-.3-.3-.3h-2.6c-.2,0-.3.2-.3.3v3c-.7.2-1.4.6-2,.9-.7.4-1.2,1-1.7,1.5-.4.6-.8,1.3-1,2-.2.7-.4,1.5-.4,2.4,0,1.8.5,3.3,1.5,4.6.6.9,1.9,1.8,3.9,2.8.9.5,1.7.9,2.3,1.3.6.4,1,.7,1.3,1,.6.6.8,1.4.8,2.4,0,1.2-.3,2.1-1,2.8-.7.7-1.5,1.1-2.5,1.1-1,0-1.9-.3-2.5-.9-.6-.7-1.1-1.9-1.6-3.5,0-.2-.2-.3-.3-.2l-3.3.8c0,0-.1,0-.2.1,0,0,0,.2,0,.2.5,2.5,1.3,4.3,2.4,5.5,1,1.1,2.5,1.9,4.4,2.3v3.1c0,.2.1.3.3.3h2.6c.2,0,.3-.2.3-.3v-3.2c1.6-.5,2.9-1.5,3.9-3,1-1.5,1.6-3.3,1.6-5.2,0-2-.6-3.8-1.8-5.2-.4-.5-1-1.1-1.8-1.6Z"/>
      <path class="st3" d="M130.3,60.7h-15.9c0,0,0,0,0,0h0s-.2.3-.2.3l-13.7,27.2-.4.7-.5-.2v9.9s-81.7.3-81.7.3v-13.7s75.1-.3,75.1-.3v-.2c0,0,.1-.2.1-.2l2.5-5.7-77.8.3v-1.8s78.6-.3,78.6-.3v-.3c.1,0,2.9-6.2,2.9-6.2l-81.5.3v-1.8s81.7-.3,81.7-.3v1.3s4.1-9.4,4.1-9.4l-92.4.3.2,46.2,119.1-.4-.2-46.2ZM120.3,94.4c-1,1.4-2.3,2.4-3.9,3v3.2c0,.2-.1.3-.3.3h-2.6c-.2,0-.3-.1-.3-.3v-3.1c-1.9-.4-3.4-1.2-4.4-2.3-1.1-1.2-1.8-3-2.4-5.5,0,0,0-.2,0-.2,0,0,.1-.1.2-.1l3.3-.8c.1,0,.3,0,.3.2.4,1.6,1,2.8,1.6,3.5.6.6,1.4.9,2.5.9,1,0,1.8-.4,2.5-1.1.7-.7,1-1.6,1-2.8,0-1-.3-1.8-.8-2.4-.3-.3-.7-.7-1.3-1-.6-.4-1.4-.8-2.3-1.3-2-1-3.3-1.9-3.9-2.8-1-1.3-1.5-2.8-1.5-4.6,0-.8.1-1.6.4-2.4.2-.7.6-1.4,1-2,.4-.6,1-1.1,1.7-1.5.6-.4,1.3-.7,2-.9v-3c0-.2.1-.3.3-.3h2.6c.2,0,.3.1.3.3v3c1.1.2,2,.7,2.8,1.3.8.7,1.5,1.7,2.2,3.1,0,.2,0,.4-.1.4l-2.9,1.8c0,0-.1,0-.2,0,0,0-.1,0-.2-.2-.8-1.7-1.9-2.5-3.2-2.5-.8,0-1.4.3-2,.8-.5.5-.8,1.2-.8,1.9,0,.7.2,1.3.6,1.7.4.5,1.3,1.1,2.7,1.8,1.2.6,2.2,1.2,3,1.7h0c.8.6,1.4,1.1,1.8,1.6,1.2,1.4,1.8,3.2,1.8,5.2,0,2-.5,3.7-1.6,5.2Z"/>
    </g>
  </g>
</svg>